<?xml version="1.0" encoding="UTF-8" standalone="no"?>
<svg
   xmlns:dc="http://purl.org/dc/elements/1.1/"
   xmlns:cc="http://creativecommons.org/ns#"
   xmlns:rdf="http://www.w3.org/1999/02/22-rdf-syntax-ns#"
   xmlns:svg="http://www.w3.org/2000/svg"
   xmlns="http://www.w3.org/2000/svg"
   width="141.35304mm"
   height="53.49604mm"
   viewBox="0 0 141.35304 53.49604"
   version="1.1"
   id="svg8">
  <defs
     id="defs2" />
  <metadata
     id="metadata5">
    <rdf:RDF>
      <cc:Work
         rdf:about="">
        <dc:format>image/svg+xml</dc:format>
        <dc:type
           rdf:resource="http://purl.org/dc/dcmitype/StillImage" />
        <dc:title></dc:title>
      </cc:Work>
    </rdf:RDF>
  </metadata>
  <g
     id="layer3"
     style="display:inline"
     transform="translate(-28.853791,-162.88454)">
    <g
       aria-label="vanillastitches"
       transform="translate(-305.32917,37.041666)"
       id="flowRoot911"
       style="font-style:normal;font-weight:normal;font-size:22.5778px;line-height:1.25;font-family:sans-serif;letter-spacing:0px;word-spacing:0px;fill:#000000;fill-opacity:1;stroke:none;stroke-width:0.264583">
      <path
         d="m 339.54009,166.78017 q -0.7407,-2.08429 -1.5503,-4.01354 -0.79237,-1.92926 -1.61919,-3.85851 -0.22393,-0.51677 -0.41341,-0.82682 -0.17226,-0.31006 -0.41342,-0.48232 -0.22393,-0.17225 -0.55121,-0.24116 -0.31006,-0.0689 -0.8096,-0.10335 l 0.0344,-0.63734 q 0.56844,0 1.27469,0.0172 0.70624,0.0172 1.48139,0.0172 0.67179,0 1.22301,-0.0172 0.56844,-0.0172 1.06798,-0.0172 l 0.0344,0.56844 q -0.68902,0.0861 -0.96463,0.20671 -0.2756,0.12057 -0.2756,0.41341 0,0.1378 0.0517,0.34451 0.0689,0.18948 0.15503,0.43063 l 2.20486,5.49494 2.32545,-5.52939 q 0.0861,-0.22393 0.1378,-0.39618 0.0689,-0.18948 0.0689,-0.32729 0,-0.2756 -0.31006,-0.43063 -0.29283,-0.15503 -1.06798,-0.18948 l 0.0344,-0.58567 q 0.53399,0 1.05076,0.0172 0.51676,0.0172 1.30914,0.0172 0.60289,0 1.05075,-0.0172 0.46509,-0.0172 0.89573,-0.0172 l 0.0344,0.55121 q -0.51677,0.0689 -0.82683,0.15503 -0.31006,0.0861 -0.55121,0.27561 -0.22393,0.17226 -0.41341,0.48232 -0.18948,0.31005 -0.44787,0.82682 -0.31006,0.60289 -0.70624,1.42971 -0.37896,0.82683 -0.82683,1.82591 -0.43063,0.99907 -0.91295,2.15318 -0.48231,1.15411 -0.98185,2.39435 z"
         style="font-style:normal;font-variant:normal;font-weight:normal;font-stretch:normal;font-size:35.2778px;font-family:'Arabic Typesetting';-inkscape-font-specification:'Arabic Typesetting';text-align:center;letter-spacing:0.264583px;text-anchor:middle;stroke-width:0.264583"
         id="path883" />
      <path
         d="m 352.56876,160.88905 q 0.0172,-0.12058 0.0172,-0.29283 v -1.25746 q 0,-0.8785 -0.43063,-1.44695 -0.41342,-0.58566 -1.34359,-0.58566 -0.49954,0 -0.86128,0.18948 -0.34451,0.17225 -0.58566,0.46509 -0.22393,0.29283 -0.34451,0.67179 -0.10336,0.37896 -0.10336,0.79237 -0.2756,0.22393 -0.75792,0.22393 -0.39618,0 -0.75792,-0.17225 -0.34451,-0.18948 -0.34451,-0.55122 0,-0.2756 0.20671,-0.56844 0.22393,-0.29283 0.56844,-0.56844 0.36173,-0.29283 0.79237,-0.55121 0.43064,-0.25839 0.8785,-0.44787 1.15411,-0.49954 2.27377,-0.49954 0.55121,0 1.03352,0.15503 0.48232,0.13781 0.84405,0.46509 0.36174,0.31006 0.56844,0.8096 0.20671,0.49954 0.20671,1.18856 0,1.03353 -0.0344,2.39434 -0.0344,1.34359 -0.0344,2.99724 0,0.67179 0.25838,1.05075 0.25838,0.37896 0.72347,0.37896 0.41341,0 0.89573,-0.29283 l 0.31006,0.46509 q -0.39619,0.37896 -0.98186,0.62011 -0.56844,0.24116 -1.1541,0.24116 -0.6029,0 -1.11966,-0.32728 -0.49954,-0.32729 -0.6718,-1.11966 -0.17225,0.12058 -0.53399,0.36174 -0.36173,0.24115 -0.82682,0.49954 -0.46509,0.24115 -0.99908,0.43063 -0.53399,0.18948 -1.0163,0.18948 -0.56844,0 -1.03353,-0.2067 -0.46509,-0.20671 -0.8096,-0.55122 -0.32728,-0.36173 -0.51676,-0.8096 -0.17226,-0.46508 -0.17226,-0.98185 0,-0.8785 0.49954,-1.49862 0.51677,-0.63734 1.34359,-0.98185 0.60289,-0.24116 1.60197,-0.48231 1.0163,-0.25839 2.41157,-0.39619 z m -0.0344,3.60013 q 0,-0.72347 0.0172,-1.41249 0.0172,-0.68902 0.0172,-1.41249 -0.46509,0.0517 -0.9474,0.1378 -0.46509,0.0689 -0.91295,0.18948 -0.44787,0.12058 -0.84405,0.31006 -0.39619,0.18948 -0.6718,0.44786 -0.43064,0.37896 -0.43064,0.98186 0,0.72347 0.36174,1.22301 0.37896,0.49953 1.15411,0.49953 0.55121,0 1.15411,-0.25838 0.60289,-0.25838 1.10243,-0.70624 z"
         style="font-style:normal;font-variant:normal;font-weight:normal;font-stretch:normal;font-size:35.2778px;font-family:'Arabic Typesetting';-inkscape-font-specification:'Arabic Typesetting';text-align:center;letter-spacing:0.264583px;text-anchor:middle;stroke-width:0.264583"
         id="path885" />
      <path
         d="m 362.72077,166.45288 q -0.55121,0 -1.24023,-0.0172 -0.68902,-0.0172 -1.51585,-0.0172 -0.67179,0 -1.34359,0.0172 -0.65456,0.0172 -1.13688,0.0172 l -0.0517,-0.55121 q 0.58566,-0.0517 0.93017,-0.15503 0.36174,-0.10336 0.55122,-0.31006 0.2067,-0.22393 0.25838,-0.60289 0.0689,-0.39619 0.0689,-1.05076 v -4.4614 q 0,-0.48231 -0.0517,-0.75792 -0.0517,-0.27561 -0.22394,-0.43064 -0.15502,-0.17225 -0.48231,-0.25838 -0.31006,-0.0861 -0.82682,-0.17226 l -0.0517,-0.48231 q 0.43064,-0.0861 0.91295,-0.20671 0.49954,-0.12057 0.96463,-0.24115 0.46509,-0.13781 0.86127,-0.25838 0.41342,-0.12058 0.6718,-0.22394 l 0.2067,0.13781 q -0.0517,0.36173 -0.0861,0.72347 -0.0344,0.34451 -0.0344,0.70624 0.93017,-0.74069 1.9637,-1.1541 1.05076,-0.41342 1.99816,-0.41342 0.62012,0 1.15411,0.20671 0.55121,0.18948 0.9474,0.62012 0.39618,0.43064 0.62011,1.10243 0.24116,0.65457 0.24116,1.60197 v 4.66811 q 0,0.41341 0.0517,0.67179 0.0517,0.24116 0.2067,0.37896 0.17226,0.13781 0.49954,0.18948 0.32729,0.0517 0.8785,0.0861 l -0.0344,0.63734 q -0.55121,0 -1.22301,-0.0172 -0.65457,-0.0172 -1.48139,-0.0172 -0.67179,0 -1.29191,0.0172 -0.60289,0.0172 -1.08521,0.0172 l -0.0517,-0.55121 q 0.53399,-0.0517 0.86127,-0.13781 0.32729,-0.0861 0.49954,-0.2756 0.17225,-0.20671 0.22393,-0.56845 0.0517,-0.37896 0.0517,-1.03352 v -3.63458 q 0,-1.37804 -0.62012,-1.98093 -0.60289,-0.62012 -1.53307,-0.62012 -0.65457,0 -1.39526,0.27561 -0.7407,0.25838 -1.48139,0.74069 v 5.82222 q 0,0.41341 0.0344,0.67179 0.0517,0.24116 0.22393,0.37896 0.17225,0.13781 0.49954,0.18948 0.34451,0.0517 0.91295,0.0861 z"
         style="font-style:normal;font-variant:normal;font-weight:normal;font-stretch:normal;font-size:35.2778px;font-family:'Arabic Typesetting';-inkscape-font-specification:'Arabic Typesetting';text-align:center;letter-spacing:0.264583px;text-anchor:middle;stroke-width:0.264583"
         id="path887" />
      <path
         d="m 376.54181,166.45288 q -0.55121,0 -1.32636,-0.0172 -0.77515,-0.0172 -1.60197,-0.0172 -0.67179,0 -1.30914,0.0172 -0.63734,0.0172 -1.11965,0.0172 l -0.0344,-0.55121 q 0.56844,-0.0517 0.89572,-0.13781 0.34451,-0.10335 0.53399,-0.32728 0.18948,-0.22393 0.24116,-0.60289 0.0689,-0.39619 0.0689,-1.05076 v -4.5303 q 0,-0.48232 -0.0517,-0.75792 -0.0517,-0.27561 -0.22393,-0.43064 -0.15503,-0.15503 -0.48231,-0.24116 -0.31006,-0.0861 -0.82682,-0.17225 l -0.0517,-0.49954 q 0.53399,-0.10335 1.06798,-0.20671 0.55121,-0.12058 1.0163,-0.24115 0.48232,-0.12058 0.84405,-0.22394 0.37896,-0.10335 0.56844,-0.18948 l 0.17226,0.13781 q -0.0517,0.43064 -0.0861,0.91295 -0.0345,0.48231 -0.0517,0.96463 -0.0172,0.46508 -0.0344,0.89572 0,0.41341 0,0.72347 v 4.56476 q 0,0.41341 0.0517,0.67179 0.0517,0.24116 0.22393,0.37896 0.18948,0.13781 0.55122,0.18948 0.36173,0.0517 0.99908,0.0861 z m -4.01353,-14.29715 q 0,-0.56844 0.3445,-0.91295 0.34451,-0.36174 0.91296,-0.36174 0.60289,0 0.9474,0.36174 0.36173,0.34451 0.36173,0.91295 0,0.56844 -0.36173,0.93017 -0.34451,0.34451 -0.9474,0.34451 -0.56845,0 -0.91296,-0.34451 -0.3445,-0.36173 -0.3445,-0.93017 z"
         style="font-style:normal;font-variant:normal;font-weight:normal;font-stretch:normal;font-size:35.2778px;font-family:'Arabic Typesetting';-inkscape-font-specification:'Arabic Typesetting';text-align:center;letter-spacing:0.264583px;text-anchor:middle;stroke-width:0.264583"
         id="path889" />
      <path
         d="m 381.52618,147.96993 q -0.0689,0.44787 -0.12058,1.03353 -0.0517,0.56844 -0.0861,1.15411 -0.0172,0.58567 -0.0345,1.10243 0,0.51677 0,0.82683 v 12.40235 q 0,0.41341 0.0517,0.67179 0.0517,0.24116 0.24116,0.37896 0.18948,0.13781 0.55121,0.18948 0.36174,0.0517 0.99908,0.0861 l -0.0344,0.63734 q -0.55122,0 -1.32636,-0.0172 -0.75792,-0.0172 -1.58475,-0.0172 -0.67179,0 -1.32636,0.0172 -0.65457,0.0172 -1.13688,0.0172 l -0.0517,-0.55121 q 0.58567,-0.0517 0.93018,-0.13781 0.36173,-0.10335 0.55121,-0.32728 0.18948,-0.22393 0.24116,-0.60289 0.0689,-0.39619 0.0689,-1.05076 v -12.86744 q 0,-0.49954 -0.0517,-0.77515 -0.0517,-0.29283 -0.24115,-0.44786 -0.18948,-0.15503 -0.55122,-0.24115 -0.34451,-0.0861 -0.9474,-0.18949 l -0.0517,-0.49953 q 0.51677,-0.10336 1.06798,-0.22394 0.55122,-0.12057 1.05076,-0.24115 0.51676,-0.12058 0.93018,-0.24116 0.41341,-0.12058 0.67179,-0.22393 z"
         style="font-style:normal;font-variant:normal;font-weight:normal;font-stretch:normal;font-size:35.2778px;font-family:'Arabic Typesetting';-inkscape-font-specification:'Arabic Typesetting';text-align:center;letter-spacing:0.264583px;text-anchor:middle;stroke-width:0.264583"
         id="path891" />
      <path
         d="m 388.11252,147.96993 q -0.0689,0.44787 -0.12058,1.03353 -0.0517,0.56844 -0.0861,1.15411 -0.0172,0.58567 -0.0344,1.10243 0,0.51677 0,0.82683 v 12.40235 q 0,0.41341 0.0517,0.67179 0.0517,0.24116 0.24115,0.37896 0.18948,0.13781 0.55122,0.18948 0.36174,0.0517 0.99908,0.0861 l -0.0344,0.63734 q -0.55122,0 -1.32637,-0.0172 -0.75792,-0.0172 -1.58474,-0.0172 -0.67179,0 -1.32636,0.0172 -0.65457,0.0172 -1.13689,0.0172 l -0.0517,-0.55121 q 0.58567,-0.0517 0.93017,-0.13781 0.36174,-0.10335 0.55122,-0.32728 0.18948,-0.22393 0.24116,-0.60289 0.0689,-0.39619 0.0689,-1.05076 v -12.86744 q 0,-0.49954 -0.0517,-0.77515 -0.0517,-0.29283 -0.24115,-0.44786 -0.18948,-0.15503 -0.55122,-0.24115 -0.34451,-0.0861 -0.9474,-0.18949 l -0.0517,-0.49953 q 0.51677,-0.10336 1.06798,-0.22394 0.55122,-0.12057 1.05076,-0.24115 0.51676,-0.12058 0.93017,-0.24116 0.41342,-0.12058 0.6718,-0.22393 z"
         style="font-style:normal;font-variant:normal;font-weight:normal;font-stretch:normal;font-size:35.2778px;font-family:'Arabic Typesetting';-inkscape-font-specification:'Arabic Typesetting';text-align:center;letter-spacing:0.264583px;text-anchor:middle;stroke-width:0.264583"
         id="path893" />
      <path
         d="m 397.07597,160.88905 q 0.0172,-0.12058 0.0172,-0.29283 v -1.25746 q 0,-0.8785 -0.43064,-1.44695 -0.41341,-0.58566 -1.34359,-0.58566 -0.49954,0 -0.86127,0.18948 -0.34451,0.17225 -0.58567,0.46509 -0.22393,0.29283 -0.34451,0.67179 -0.10335,0.37896 -0.10335,0.79237 -0.27561,0.22393 -0.75792,0.22393 -0.39619,0 -0.75792,-0.17225 -0.34451,-0.18948 -0.34451,-0.55122 0,-0.2756 0.2067,-0.56844 0.22393,-0.29283 0.56844,-0.56844 0.36174,-0.29283 0.79238,-0.55121 0.43063,-0.25839 0.8785,-0.44787 1.1541,-0.49954 2.27376,-0.49954 0.55122,0 1.03353,0.15503 0.48231,0.13781 0.84405,0.46509 0.36173,0.31006 0.56844,0.8096 0.20671,0.49954 0.20671,1.18856 0,1.03353 -0.0344,2.39434 -0.0345,1.34359 -0.0345,2.99724 0,0.67179 0.25839,1.05075 0.25838,0.37896 0.72347,0.37896 0.41341,0 0.89572,-0.29283 l 0.31006,0.46509 q -0.39618,0.37896 -0.98185,0.62011 -0.56844,0.24116 -1.15411,0.24116 -0.60289,0 -1.11966,-0.32728 -0.49954,-0.32729 -0.67179,-1.11966 -0.17225,0.12058 -0.53399,0.36174 -0.36174,0.24115 -0.82682,0.49954 -0.46509,0.24115 -0.99908,0.43063 -0.53399,0.18948 -1.01631,0.18948 -0.56844,0 -1.03353,-0.2067 -0.46508,-0.20671 -0.80959,-0.55122 -0.32729,-0.36173 -0.51677,-0.8096 -0.17225,-0.46508 -0.17225,-0.98185 0,-0.8785 0.49954,-1.49862 0.51676,-0.63734 1.34358,-0.98185 0.6029,-0.24116 1.60198,-0.48231 1.0163,-0.25839 2.41156,-0.39619 z m -0.0344,3.60013 q 0,-0.72347 0.0172,-1.41249 0.0172,-0.68902 0.0172,-1.41249 -0.46508,0.0517 -0.9474,0.1378 -0.46509,0.0689 -0.91295,0.18948 -0.44786,0.12058 -0.84405,0.31006 -0.39618,0.18948 -0.67179,0.44786 -0.43064,0.37896 -0.43064,0.98186 0,0.72347 0.36174,1.22301 0.37896,0.49953 1.1541,0.49953 0.55122,0 1.15411,-0.25838 0.60289,-0.25838 1.10243,-0.70624 z"
         style="font-style:normal;font-variant:normal;font-weight:normal;font-stretch:normal;font-size:35.2778px;font-family:'Arabic Typesetting';-inkscape-font-specification:'Arabic Typesetting';text-align:center;letter-spacing:0.264583px;text-anchor:middle;stroke-width:0.264583"
         id="path895" />
      <path
         d="m 408.451,159.56269 q -0.0517,-0.53399 -0.27561,-0.98186 -0.2067,-0.46508 -0.56844,-0.79237 -0.34451,-0.32728 -0.8096,-0.49954 -0.46509,-0.18948 -0.99908,-0.18948 -0.32728,0 -0.63734,0.10336 -0.29283,0.10335 -0.53399,0.29283 -0.22393,0.18948 -0.36173,0.48231 -0.13781,0.27561 -0.13781,0.63735 0,0.43063 0.20671,0.75792 0.22393,0.31006 0.56844,0.56844 0.36173,0.24115 0.8096,0.43064 0.46509,0.18948 0.9474,0.37896 0.53399,0.22393 1.05075,0.48231 0.53399,0.24116 0.94741,0.58567 0.41341,0.32728 0.65456,0.79237 0.25839,0.46509 0.25839,1.10243 0,0.8096 -0.34451,1.39526 -0.34451,0.56845 -0.89573,0.94741 -0.55121,0.37896 -1.25746,0.55121 -0.68902,0.18948 -1.39526,0.18948 -0.44787,0 -0.91295,-0.0689 -0.44787,-0.0689 -0.84405,-0.15503 -0.36174,-0.0861 -0.70625,-0.15503 -0.32728,-0.0861 -0.72347,-0.12058 -0.0172,-0.29283 -0.0689,-0.74069 -0.0344,-0.44787 -0.0861,-0.91295 -0.0517,-0.46509 -0.12058,-0.8785 -0.0517,-0.43064 -0.12058,-0.6718 l 0.58567,-0.15503 q 0.24116,0.58567 0.53399,1.13689 0.29283,0.55121 0.68902,0.98185 0.41341,0.41341 0.93018,0.67179 0.51676,0.25838 1.22301,0.25838 0.67179,0 1.18856,-0.36173 0.51676,-0.37896 0.51676,-1.13688 0,-0.43064 -0.20671,-0.75792 -0.18948,-0.34451 -0.53399,-0.6029 -0.32728,-0.25838 -0.75792,-0.44786 -0.41341,-0.20671 -0.8785,-0.39619 -0.53399,-0.22393 -1.06798,-0.46508 -0.51676,-0.25839 -0.93017,-0.58567 -0.41342,-0.34451 -0.6718,-0.8096 -0.25838,-0.46509 -0.25838,-1.11965 0,-0.79238 0.32728,-1.36082 0.34451,-0.56844 0.86128,-0.93018 0.53399,-0.37896 1.20578,-0.55121 0.6718,-0.17226 1.34359,-0.17226 0.68902,0 1.36081,0.13781 0.68902,0.1378 1.5503,0.17225 -0.0517,0.55122 -0.0689,1.05076 -0.0172,0.48231 -0.0172,1.05075 v 0.84405 z"
         style="font-style:normal;font-variant:normal;font-weight:normal;font-stretch:normal;font-size:35.2778px;font-family:'Arabic Typesetting';-inkscape-font-specification:'Arabic Typesetting';text-align:center;letter-spacing:0.264583px;text-anchor:middle;stroke-width:0.264583"
         id="path897" />
      <path
         d="m 414.50335,153.017 q -0.0345,0.41341 -0.0689,0.96463 -0.0172,0.53399 -0.0344,1.0852 -0.0172,0.53399 -0.0344,1.01631 0,0.46509 0,0.75792 l 2.94556,-0.0517 0.1378,0.12058 -0.0517,0.8785 h -3.03169 v 5.54661 q 0,0.67179 0.12058,1.10243 0.1378,0.43064 0.36174,0.68902 0.24115,0.25838 0.55121,0.36174 0.31006,0.0861 0.6718,0.0861 0.37896,0 0.79237,-0.0861 0.41341,-0.0861 0.8096,-0.17226 l 0.12057,0.62012 q -0.67179,0.32728 -1.44694,0.55121 -0.77514,0.24116 -1.49861,0.24116 -0.49954,0 -0.93018,-0.1378 -0.41341,-0.12058 -0.7407,-0.43064 -0.32728,-0.31006 -0.51676,-0.8096 -0.17226,-0.51676 -0.17226,-1.25746 v -0.46509 q 0,-0.31006 0,-0.99908 0.0172,-0.68902 0.0172,-1.84312 v -2.99724 h -1.5503 l -0.12057,-0.12058 0.0689,-0.67179 1.60197,-0.12058 v -1.42971 q 0,-0.43064 -0.0172,-0.8785 0,-0.44787 0,-0.86128 0.25839,-0.10335 0.53399,-0.2067 0.27561,-0.12058 0.53399,-0.22394 0.25839,-0.10335 0.44787,-0.18948 0.2067,-0.10335 0.31006,-0.17225 z"
         style="font-style:normal;font-variant:normal;font-weight:normal;font-stretch:normal;font-size:35.2778px;font-family:'Arabic Typesetting';-inkscape-font-specification:'Arabic Typesetting';text-align:center;letter-spacing:0.264583px;text-anchor:middle;stroke-width:0.264583"
         id="path899" />
      <path
         d="m 424.37975,166.45288 q -0.55122,0 -1.32637,-0.0172 -0.77514,-0.0172 -1.60197,-0.0172 -0.67179,0 -1.30913,0.0172 -0.63735,0.0172 -1.11966,0.0172 l -0.0344,-0.55121 q 0.56844,-0.0517 0.89572,-0.13781 0.34451,-0.10335 0.53399,-0.32728 0.18948,-0.22393 0.24116,-0.60289 0.0689,-0.39619 0.0689,-1.05076 v -4.5303 q 0,-0.48232 -0.0517,-0.75792 -0.0517,-0.27561 -0.22393,-0.43064 -0.15503,-0.15503 -0.48232,-0.24116 -0.31006,-0.0861 -0.82682,-0.17225 l -0.0517,-0.49954 q 0.53399,-0.10335 1.06798,-0.20671 0.55122,-0.12058 1.01631,-0.24115 0.48231,-0.12058 0.84404,-0.22394 0.37897,-0.10335 0.56845,-0.18948 l 0.17225,0.13781 q -0.0517,0.43064 -0.0861,0.91295 -0.0344,0.48231 -0.0517,0.96463 -0.0172,0.46508 -0.0344,0.89572 0,0.41341 0,0.72347 v 4.56476 q 0,0.41341 0.0517,0.67179 0.0517,0.24116 0.22393,0.37896 0.18948,0.13781 0.55122,0.18948 0.36173,0.0517 0.99908,0.0861 z m -4.01354,-14.29715 q 0,-0.56844 0.34451,-0.91295 0.34451,-0.36174 0.91295,-0.36174 0.60289,0 0.9474,0.36174 0.36174,0.34451 0.36174,0.91295 0,0.56844 -0.36174,0.93017 -0.34451,0.34451 -0.9474,0.34451 -0.56844,0 -0.91295,-0.34451 -0.34451,-0.36173 -0.34451,-0.93017 z"
         style="font-style:normal;font-variant:normal;font-weight:normal;font-stretch:normal;font-size:35.2778px;font-family:'Arabic Typesetting';-inkscape-font-specification:'Arabic Typesetting';text-align:center;letter-spacing:0.264583px;text-anchor:middle;stroke-width:0.264583"
         id="path901" />
      <path
         d="m 428.96793,153.017 q -0.0345,0.41341 -0.0689,0.96463 -0.0172,0.53399 -0.0344,1.0852 -0.0172,0.53399 -0.0344,1.01631 0,0.46509 0,0.75792 l 2.94555,-0.0517 0.13781,0.12058 -0.0517,0.8785 h -3.03168 v 5.54661 q 0,0.67179 0.12057,1.10243 0.13781,0.43064 0.36174,0.68902 0.24116,0.25838 0.55122,0.36174 0.31005,0.0861 0.67179,0.0861 0.37896,0 0.79237,-0.0861 0.41341,-0.0861 0.8096,-0.17226 l 0.12058,0.62012 q -0.6718,0.32728 -1.44694,0.55121 -0.77515,0.24116 -1.49862,0.24116 -0.49954,0 -0.93018,-0.1378 -0.41341,-0.12058 -0.74069,-0.43064 -0.32729,-0.31006 -0.51677,-0.8096 -0.17225,-0.51676 -0.17225,-1.25746 v -0.46509 q 0,-0.31006 0,-0.99908 0.0172,-0.68902 0.0172,-1.84312 v -2.99724 h -1.55029 l -0.12058,-0.12058 0.0689,-0.67179 1.60197,-0.12058 v -1.42971 q 0,-0.43064 -0.0172,-0.8785 0,-0.44787 0,-0.86128 0.25838,-0.10335 0.53399,-0.2067 0.27561,-0.12058 0.53399,-0.22394 0.25838,-0.10335 0.44786,-0.18948 0.20671,-0.10335 0.31006,-0.17225 z"
         style="font-style:normal;font-variant:normal;font-weight:normal;font-stretch:normal;font-size:35.2778px;font-family:'Arabic Typesetting';-inkscape-font-specification:'Arabic Typesetting';text-align:center;letter-spacing:0.264583px;text-anchor:middle;stroke-width:0.264583"
         id="path903" />
      <path
         d="m 442.47892,164.26525 q -0.29284,0.60289 -0.75792,1.06798 -0.46509,0.46508 -1.03353,0.79237 -0.55122,0.32728 -1.17134,0.49954 -0.62011,0.17225 -1.24023,0.17225 -1.03353,0 -1.89481,-0.39618 -0.86127,-0.41342 -1.48139,-1.08521 -0.62012,-0.67179 -0.96463,-1.55029 -0.34451,-0.89573 -0.34451,-1.87758 0,-1.18856 0.46509,-2.20486 0.48232,-1.01631 1.27469,-1.77423 0.8096,-0.75792 1.86035,-1.18856 1.05076,-0.43064 2.22209,-0.43064 0.56844,0 1.13688,0.10336 0.58567,0.10335 1.13688,0.39618 0.24116,0.12058 0.32729,0.32729 0.10335,0.18948 0.10335,0.37896 0,0.31006 -0.24116,0.65457 -0.24115,0.32728 -0.79237,0.60289 h -0.0861 q -0.63734,-0.65457 -1.223,-0.96463 -0.58567,-0.31006 -1.36082,-0.31006 -0.72347,0 -1.27468,0.29284 -0.53399,0.29283 -0.89573,0.77514 -0.36174,0.48232 -0.55122,1.11966 -0.18948,0.62012 -0.18948,1.29191 0,0.84405 0.24116,1.6192 0.25838,0.77514 0.72347,1.36081 0.46509,0.58567 1.13688,0.9474 0.68902,0.34451 1.56752,0.34451 0.82683,0 1.58475,-0.34451 0.75792,-0.34451 1.22301,-1.06798 z"
         style="font-style:normal;font-variant:normal;font-weight:normal;font-stretch:normal;font-size:35.2778px;font-family:'Arabic Typesetting';-inkscape-font-specification:'Arabic Typesetting';text-align:center;letter-spacing:0.264583px;text-anchor:middle;stroke-width:0.264583"
         id="path905" />
      <path
         d="m 447.42883,147.96993 q -0.0689,0.43064 -0.12058,1.01631 -0.0344,0.58566 -0.0689,1.17133 -0.0172,0.58567 -0.0344,1.10243 -0.0172,0.51677 -0.0172,0.82683 v 5.59828 q 0.8785,-0.58567 1.91203,-0.98185 1.03353,-0.41342 2.01538,-0.41342 0.62012,0 1.17134,0.18948 0.55121,0.18949 0.96462,0.62012 0.41342,0.41341 0.65457,1.10243 0.24116,0.6718 0.24116,1.65365 v 4.63366 q 0,0.41341 0.0344,0.67179 0.0517,0.24116 0.22393,0.37896 0.17226,0.13781 0.51677,0.18948 0.34451,0.0517 0.93017,0.0861 l -0.0344,0.63734 q -0.55121,0 -1.27468,-0.0172 -0.70625,-0.0172 -1.53307,-0.0172 -0.6718,0 -1.27469,0.0172 -0.60289,0.0172 -1.0852,0.0172 l -0.0517,-0.55121 q 0.53399,-0.0517 0.86127,-0.13781 0.34451,-0.0861 0.51677,-0.2756 0.18948,-0.20671 0.24115,-0.56845 0.0689,-0.37896 0.0689,-1.03352 v -3.63458 q 0,-1.39527 -0.62012,-1.99816 -0.62012,-0.60289 -1.60197,-0.60289 -0.65457,0 -1.39527,0.24115 -0.74069,0.22394 -1.48139,0.65457 v 5.9428 q 0,0.41341 0.0517,0.67179 0.0517,0.24116 0.22393,0.37896 0.17225,0.13781 0.49954,0.18948 0.34451,0.0517 0.91295,0.0861 l -0.0517,0.63734 q -0.55121,0 -1.24023,-0.0172 -0.6718,-0.0172 -1.49862,-0.0172 -0.67179,0 -1.30914,0.0172 -0.63734,0.0172 -1.11965,0.0172 l -0.0344,-0.55121 q 0.56844,-0.0517 0.89572,-0.15503 0.34451,-0.10336 0.53399,-0.31006 0.18948,-0.22393 0.24116,-0.60289 0.0689,-0.39619 0.0689,-1.05076 v -12.83299 q 0,-0.49954 -0.0689,-0.77514 -0.0517,-0.29284 -0.24116,-0.44787 -0.17225,-0.15503 -0.53399,-0.24115 -0.36173,-0.0861 -0.9474,-0.18948 l -0.0517,-0.49954 q 0.48232,-0.0861 1.01631,-0.20671 0.55121,-0.12058 1.05075,-0.24116 0.49954,-0.1378 0.93018,-0.25838 0.44786,-0.1378 0.72347,-0.25838 z"
         style="font-style:normal;font-variant:normal;font-weight:normal;font-stretch:normal;font-size:35.2778px;font-family:'Arabic Typesetting';-inkscape-font-specification:'Arabic Typesetting';text-align:center;letter-spacing:0.264583px;text-anchor:middle;stroke-width:0.264583"
         id="path907" />
      <path
         d="m 466.19359,164.54085 q -0.55122,0.72347 -1.13688,1.17134 -0.58567,0.43063 -1.11966,0.67179 -0.53399,0.24116 -0.98185,0.32729 -0.44787,0.0861 -0.70625,0.0861 -1.06798,0 -1.9637,-0.39618 -0.89573,-0.39619 -1.5503,-1.08521 -0.63734,-0.68902 -0.99908,-1.60197 -0.34451,-0.93018 -0.34451,-1.96371 0,-1.1541 0.41342,-2.13596 0.43063,-0.99907 1.11965,-1.73977 0.70625,-0.7407 1.6192,-1.15411 0.91295,-0.43064 1.87758,-0.43064 0.77514,0 1.46416,0.25839 0.70625,0.24115 1.22301,0.70624 0.51677,0.46509 0.82683,1.11966 0.31006,0.65457 0.31006,1.46417 v 0.24115 l -0.0172,0.24116 q -0.0861,0.46509 -0.48231,0.46509 h -6.51124 q 0.0172,1.18856 0.36174,2.0326 0.34451,0.84405 0.8785,1.37804 0.55121,0.53399 1.22301,0.79238 0.67179,0.24115 1.32636,0.24115 0.70624,0 1.34359,-0.24115 0.63734,-0.24116 1.34359,-0.94741 z m -2.54937,-4.5303 q 0.34451,0 0.44786,-0.12058 0.10335,-0.1378 0.10335,-0.44786 0,-0.46509 -0.15503,-0.8785 -0.15503,-0.41341 -0.44786,-0.72347 -0.29283,-0.31006 -0.72347,-0.48232 -0.43064,-0.17225 -0.96463,-0.17225 -0.41341,0 -0.82682,0.18948 -0.41341,0.18948 -0.77515,0.55122 -0.36173,0.36173 -0.63734,0.89572 -0.25838,0.51677 -0.36174,1.18856 z"
         style="font-style:normal;font-variant:normal;font-weight:normal;font-stretch:normal;font-size:35.2778px;font-family:'Arabic Typesetting';-inkscape-font-specification:'Arabic Typesetting';text-align:center;letter-spacing:0.264583px;text-anchor:middle;stroke-width:0.264583"
         id="path909" />
      <path
         d="m 474.41635,159.56269 q -0.0517,-0.53399 -0.27561,-0.98186 -0.20671,-0.46508 -0.56844,-0.79237 -0.34451,-0.32728 -0.8096,-0.49954 -0.46509,-0.18948 -0.99908,-0.18948 -0.32728,0 -0.63734,0.10336 -0.29283,0.10335 -0.53399,0.29283 -0.22393,0.18948 -0.36174,0.48231 -0.1378,0.27561 -0.1378,0.63735 0,0.43063 0.20671,0.75792 0.22393,0.31006 0.56844,0.56844 0.36173,0.24115 0.80959,0.43064 0.46509,0.18948 0.94741,0.37896 0.53399,0.22393 1.05075,0.48231 0.53399,0.24116 0.9474,0.58567 0.41341,0.32728 0.65457,0.79237 0.25838,0.46509 0.25838,1.10243 0,0.8096 -0.34451,1.39526 -0.34451,0.56845 -0.89572,0.94741 -0.55122,0.37896 -1.25746,0.55121 -0.68902,0.18948 -1.39527,0.18948 -0.44786,0 -0.91295,-0.0689 -0.44786,-0.0689 -0.84405,-0.15503 -0.36173,-0.0861 -0.70624,-0.15503 -0.32729,-0.0861 -0.72347,-0.12058 -0.0172,-0.29283 -0.0689,-0.74069 -0.0344,-0.44787 -0.0861,-0.91295 -0.0517,-0.46509 -0.12058,-0.8785 -0.0517,-0.43064 -0.12058,-0.6718 l 0.58567,-0.15503 q 0.24116,0.58567 0.53399,1.13689 0.29283,0.55121 0.68902,0.98185 0.41341,0.41341 0.93017,0.67179 0.51677,0.25838 1.22301,0.25838 0.6718,0 1.18856,-0.36173 0.51677,-0.37896 0.51677,-1.13688 0,-0.43064 -0.20671,-0.75792 -0.18948,-0.34451 -0.53399,-0.6029 -0.32728,-0.25838 -0.75792,-0.44786 -0.41341,-0.20671 -0.8785,-0.39619 -0.53399,-0.22393 -1.06798,-0.46508 -0.51676,-0.25839 -0.93018,-0.58567 -0.41341,-0.34451 -0.67179,-0.8096 -0.25838,-0.46509 -0.25838,-1.11965 0,-0.79238 0.32728,-1.36082 0.34451,-0.56844 0.86128,-0.93018 0.53399,-0.37896 1.20578,-0.55121 0.67179,-0.17226 1.34359,-0.17226 0.68902,0 1.36081,0.13781 0.68902,0.1378 1.5503,0.17225 -0.0517,0.55122 -0.0689,1.05076 -0.0172,0.48231 -0.0172,1.05075 v 0.84405 z"
         style="font-style:normal;font-variant:normal;font-weight:normal;font-stretch:normal;font-size:35.2778px;font-family:'Arabic Typesetting';-inkscape-font-specification:'Arabic Typesetting';text-align:center;letter-spacing:0.264583px;text-anchor:middle;stroke-width:0.264583"
         id="path912" />
    </g>
  </g>
  <g
     style="display:inline"
     id="g927"
     transform="translate(-28.853791,-162.88454)">
    <g
       aria-label="HANDMADE"
       transform="translate(-305.32917,63.5)"
       id="flowRoot925"
       style="font-style:normal;font-weight:normal;font-size:10.5833px;line-height:1.25;font-family:sans-serif;letter-spacing:2.91042px;word-spacing:0px;fill:#000000;fill-opacity:1;stroke:none;stroke-width:0.264583">
      <path
         d="m 369.08277,148.43588 v -2.4288 q 0,-0.19431 -0.0324,-0.32384 -0.0243,-0.12954 -0.12954,-0.2105 -0.0971,-0.089 -0.29145,-0.12953 -0.19431,-0.0405 -0.53434,-0.0567 l 0.0162,-0.29145 q 0.12954,0 0.30765,0.008 0.18621,0 0.38861,0 0.21049,0 0.42909,0.008 0.21859,0 0.41289,0 0.15383,0 0.34003,0 0.18621,-0.008 0.36432,-0.008 0.18621,0 0.34813,0 0.16192,-0.008 0.27527,-0.008 l 0.0162,0.27526 q -0.31575,0.0243 -0.51005,0.081 -0.18621,0.0486 -0.29146,0.16192 -0.10524,0.10525 -0.14572,0.29955 -0.0324,0.19431 -0.0324,0.49386 v 5.44861 q 0,0.1943 0.0324,0.32384 0.0324,0.12953 0.12953,0.21859 0.10525,0.081 0.30765,0.12144 0.2024,0.0405 0.54243,0.0567 l -0.0162,0.29146 q -0.12954,0 -0.31574,0 -0.18621,-0.008 -0.39671,-0.008 -0.21049,0 -0.42909,0 -0.21859,-0.008 -0.41289,-0.008 -0.16192,0 -0.34813,0.008 -0.17811,0 -0.35622,0 -0.17812,0 -0.34004,0.008 -0.15382,0 -0.26716,0 l -0.0243,-0.27527 q 0.31574,-0.0243 0.50195,-0.0729 0.18621,-0.0567 0.29146,-0.16192 0.10524,-0.11335 0.13763,-0.29955 0.0324,-0.19431 0.0324,-0.50196 v -2.54214 h -4.33136 v 2.8417 q 0,0.1943 0.0243,0.32384 0.0324,0.12953 0.12954,0.21859 0.10525,0.081 0.29955,0.12144 0.1943,0.0405 0.53434,0.0567 l -0.0162,0.29146 q -0.12953,0 -0.31574,0 -0.17811,-0.008 -0.38861,-0.008 -0.2024,-0.008 -0.42099,-0.008 -0.21859,-0.008 -0.4129,-0.008 -0.15382,0 -0.34003,0.008 -0.18621,0 -0.37241,0 -0.17811,0 -0.34003,0.008 -0.16192,0 -0.27527,0 l -0.0162,-0.27526 q 0.31574,-0.0243 0.50195,-0.0729 0.1943,-0.0567 0.29955,-0.16192 0.10525,-0.11334 0.13763,-0.29955 0.0405,-0.1943 0.0405,-0.50195 v -5.44051 q 0,-0.19431 -0.0324,-0.32384 -0.0324,-0.12954 -0.13763,-0.2105 -0.0971,-0.089 -0.29955,-0.12953 -0.2024,-0.0405 -0.54243,-0.0567 l 0.0162,-0.29145 h 0.35622 q 0.2024,0 0.4048,0.008 0.2105,0 0.4048,0 h 0.71245 q 0.18621,0 0.36432,0 0.18621,-0.008 0.34813,-0.008 h 0.27526 l 0.0243,0.27526 q -0.31575,0.0243 -0.50195,0.081 -0.18621,0.0486 -0.29146,0.16192 -0.10525,0.10525 -0.13763,0.29955 -0.0324,0.19431 -0.0324,0.49386 v 2.12925 z"
         style="font-style:normal;font-variant:normal;font-weight:normal;font-stretch:normal;font-size:16.5806px;font-family:'Arabic Typesetting';-inkscape-font-specification:'Arabic Typesetting';text-align:center;letter-spacing:2.64583px;text-anchor:middle;stroke-width:0.264583"
         id="path916" />
      <path
         d="m 379.16073,149.89316 h -2.69597 l -0.62339,1.59491 q -0.16192,0.46147 -0.16192,0.58291 0,0.2105 0.1943,0.29146 0.2024,0.081 0.71245,0.10524 l -0.0243,0.29146 q -0.29955,0 -0.67196,-0.008 -0.37242,-0.008 -0.73674,-0.008 -0.29955,0 -0.62339,0.008 -0.31575,0.008 -0.6153,0.008 l -0.0162,-0.27526 q 0.31574,-0.0243 0.51814,-0.0729 0.2024,-0.0567 0.34813,-0.1943 0.15383,-0.14573 0.28336,-0.38861 0.13763,-0.25098 0.31575,-0.66387 l 2.32355,-5.48099 q 0.0971,-0.24288 0.16192,-0.42099 0.0729,-0.18621 0.15382,-0.39671 l 0.51005,-0.0648 q 0.089,0.38861 0.18621,0.71245 0.10524,0.32384 0.1943,0.59101 l 1.8216,5.27859 q 0.12144,0.35622 0.21859,0.55862 0.0971,0.2024 0.22669,0.31575 0.12953,0.10525 0.32384,0.14573 0.2024,0.0405 0.51814,0.0648 l -0.0243,0.29146 q -0.34003,0 -0.75292,-0.008 -0.4048,-0.008 -0.8177,-0.008 -0.34003,0 -0.68816,0.008 -0.34813,0.008 -0.68816,0.008 l -0.0243,-0.27526 q 0.45338,-0.0324 0.64768,-0.10525 0.19431,-0.081 0.19431,-0.29146 0,-0.089 -0.0324,-0.2024 -0.0324,-0.12144 -0.081,-0.26717 z m -2.50976,-0.46957 h 2.35593 l -1.08486,-3.20602 z"
         style="font-style:normal;font-variant:normal;font-weight:normal;font-stretch:normal;font-size:16.5806px;font-family:'Arabic Typesetting';-inkscape-font-specification:'Arabic Typesetting';text-align:center;letter-spacing:2.64583px;text-anchor:middle;stroke-width:0.264583"
         id="path918" />
      <path
         d="m 391.72415,152.88058 q -0.21049,-0.29955 -0.42099,-0.57482 -0.21049,-0.28336 -0.44528,-0.56672 l -4.36374,-5.17334 v 4.78474 q 0,0.38051 0.0405,0.5991 0.0486,0.2105 0.17002,0.32384 0.12144,0.10525 0.32384,0.14573 0.21049,0.0324 0.54243,0.0567 l -0.0162,0.29146 q -0.25907,0 -0.61529,-0.008 -0.34813,-0.008 -0.73674,-0.008 -0.30764,0 -0.64768,0.008 -0.33193,0.008 -0.61529,0.008 l -0.0243,-0.27527 q 0.32384,-0.0324 0.53434,-0.0729 0.21049,-0.0486 0.33193,-0.18621 0.12954,-0.13763 0.17811,-0.4129 0.0486,-0.27526 0.0486,-0.76102 v -4.05609 q 0,-0.34004 -0.008,-0.55053 -0.008,-0.2105 -0.0405,-0.34003 -0.0243,-0.13764 -0.0729,-0.22669 -0.0486,-0.0891 -0.12954,-0.18621 -0.081,-0.10525 -0.16192,-0.17811 -0.081,-0.0729 -0.1862,-0.12144 -0.10525,-0.0486 -0.25908,-0.0729 -0.15382,-0.0243 -0.38051,-0.0405 l 0.0162,-0.29145 q 0.0972,0 0.28336,0.008 0.19431,0 0.42909,0 0.23479,0 0.48576,0.008 0.25098,0 0.46957,0 l 5.20573,6.09629 v -4.68759 q 0,-0.38051 -0.0486,-0.591 -0.0405,-0.2186 -0.16192,-0.32384 -0.12144,-0.11335 -0.33194,-0.14573 -0.21049,-0.0405 -0.54243,-0.0648 l 0.0162,-0.29146 q 0.25908,0 0.6153,0.008 0.35622,0.008 0.74483,0.008 0.15382,0 0.32384,0 0.17002,-0.008 0.33194,-0.008 0.17001,-0.008 0.31574,-0.008 0.15382,-0.008 0.26717,-0.008 l 0.008,0.27526 q -0.31574,0.0324 -0.51814,0.081 -0.2024,0.0486 -0.32384,0.18621 -0.11334,0.13763 -0.16192,0.4129 -0.0486,0.27526 -0.0486,0.76102 v 6.08819 z"
         style="font-style:normal;font-variant:normal;font-weight:normal;font-stretch:normal;font-size:16.5806px;font-family:'Arabic Typesetting';-inkscape-font-specification:'Arabic Typesetting';text-align:center;letter-spacing:2.64583px;text-anchor:middle;stroke-width:0.264583"
         id="path920" />
      <path
         d="m 396.5559,144.99508 q 0.29146,0 0.70435,0.008 0.421,0.008 0.83389,0.008 0.4129,0 0.86627,-0.0405 0.45338,-0.0486 0.87437,-0.0486 0.87437,0 1.68397,0.18621 0.8096,0.18621 1.43299,0.6153 0.63149,0.42909 1.0039,1.12534 0.38052,0.68816 0.38052,1.69207 0,1.03628 -0.37242,1.83779 -0.37242,0.8015 -1.0039,1.35203 -0.63149,0.55053 -1.47348,0.84198 -0.83388,0.28336 -1.76492,0.28336 -0.4129,0 -0.88247,-0.0567 -0.46956,-0.0486 -0.88246,-0.0486 -0.16192,0 -0.34813,0.008 -0.17811,0 -0.36432,0 -0.18621,0 -0.35622,0.008 -0.17002,0 -0.29955,0 l -0.0243,-0.27527 q 0.34003,-0.0243 0.55053,-0.0729 0.21049,-0.0486 0.32384,-0.16192 0.11334,-0.11335 0.14572,-0.29955 0.0405,-0.19431 0.0405,-0.50196 v -5.41622 q 0,-0.21859 -0.0324,-0.35622 -0.0324,-0.13763 -0.14573,-0.21859 -0.10525,-0.0891 -0.32384,-0.12144 -0.21859,-0.0405 -0.58291,-0.0567 z m 2.00781,6.33107 q 0,0.23478 0.0162,0.43718 0.0162,0.19431 0.12144,0.34003 0.10525,0.14573 0.34003,0.22669 0.23479,0.081 0.67197,0.081 0.78531,0 1.4249,-0.24288 0.64768,-0.25097 1.10915,-0.72054 0.46147,-0.46957 0.71245,-1.14154 0.25907,-0.67197 0.25907,-1.51395 0,-0.85817 -0.26717,-1.49776 -0.25907,-0.64768 -0.72054,-1.07677 -0.46148,-0.43718 -1.09296,-0.65577 -0.63149,-0.21859 -1.36823,-0.21859 -0.25907,0 -0.47766,0.0324 -0.21859,0.0324 -0.38051,0.0891 -0.16192,0.0567 -0.25907,0.12144 -0.0891,0.0648 -0.0891,0.13763 z"
         style="font-style:normal;font-variant:normal;font-weight:normal;font-stretch:normal;font-size:16.5806px;font-family:'Arabic Typesetting';-inkscape-font-specification:'Arabic Typesetting';text-align:center;letter-spacing:2.64583px;text-anchor:middle;stroke-width:0.264583"
         id="path922" />
      <path
         d="m 407.78349,144.99508 q 0.0972,0 0.33194,0.008 0.24288,0 0.53433,0 0.29146,0 0.59101,0.008 0.29955,0 0.51814,0 0.14573,0.34813 0.29146,0.68816 0.15382,0.34003 0.30765,0.68816 l 2.31545,5.10048 2.24259,-5.20573 q 0.13763,-0.31574 0.26717,-0.63149 0.12954,-0.32384 0.25907,-0.63958 0.15383,0 0.43719,0 0.29145,-0.008 0.591,-0.008 0.30765,0 0.57482,0 0.26717,-0.008 0.38051,-0.008 l 0.0162,0.27526 q -0.35622,0.0243 -0.57481,0.081 -0.2105,0.0486 -0.32384,0.16192 -0.11335,0.10525 -0.14573,0.29955 -0.0324,0.19431 -0.0243,0.49386 l 0.17002,5.44861 q 0.008,0.1943 0.0486,0.32384 0.0486,0.12953 0.16192,0.21859 0.12144,0.081 0.33194,0.12144 0.21859,0.0405 0.57482,0.0567 l -0.0162,0.29146 q -0.14572,0 -0.34003,0 -0.1943,-0.008 -0.41289,-0.008 -0.2105,0 -0.42909,0 -0.21859,-0.008 -0.4129,-0.008 -0.16192,0 -0.34003,0.008 -0.17002,0 -0.34003,0 -0.17002,0 -0.32384,0.008 -0.15383,0 -0.26717,0 l -0.0243,-0.27527 q 0.29146,-0.0243 0.46147,-0.0729 0.17812,-0.0567 0.26717,-0.17002 0.0971,-0.11334 0.11335,-0.29955 0.0243,-0.1943 0.0162,-0.49386 l -0.17002,-5.16524 q -0.71245,1.64349 -1.4087,3.26268 -0.68816,1.61111 -1.37632,3.27888 l -0.38861,0.0486 q -0.23478,-0.57482 -1.12534,-2.53405 -0.89056,-1.95923 -1.67587,-3.69177 l -0.17811,4.69568 q -0.0162,0.38051 0.0162,0.5991 0.0324,0.2105 0.13763,0.32384 0.10525,0.10525 0.29955,0.14573 0.1943,0.0324 0.50195,0.0567 l -0.0162,0.29146 q -0.25907,0 -0.55862,-0.008 -0.29955,-0.008 -0.68816,-0.008 -0.30765,0 -0.64768,0.008 -0.33194,0.008 -0.6153,0.008 l -0.0243,-0.27527 q 0.33194,-0.0324 0.54244,-0.0729 0.21049,-0.0486 0.33193,-0.18621 0.12144,-0.13763 0.17002,-0.4129 0.0486,-0.27526 0.0648,-0.76102 l 0.17001,-4.18563 q 0.008,-0.29146 0,-0.49386 -0.008,-0.21049 -0.0405,-0.35622 -0.0324,-0.15382 -0.089,-0.25907 -0.0567,-0.10525 -0.14573,-0.19431 -0.15383,-0.15382 -0.38861,-0.21049 -0.23478,-0.0567 -0.54243,-0.0729 z"
         style="font-style:normal;font-variant:normal;font-weight:normal;font-stretch:normal;font-size:16.5806px;font-family:'Arabic Typesetting';-inkscape-font-specification:'Arabic Typesetting';text-align:center;letter-spacing:2.64583px;text-anchor:middle;stroke-width:0.264583"
         id="path924" />
      <path
         d="m 425.46358,149.89316 h -2.69596 l -0.6234,1.59491 q -0.16192,0.46147 -0.16192,0.58291 0,0.2105 0.19431,0.29146 0.2024,0.081 0.71245,0.10524 l -0.0243,0.29146 q -0.29955,0 -0.67197,-0.008 -0.37242,-0.008 -0.73674,-0.008 -0.29955,0 -0.62339,0.008 -0.31574,0.008 -0.61529,0.008 l -0.0162,-0.27526 q 0.31574,-0.0243 0.51814,-0.0729 0.2024,-0.0567 0.34813,-0.1943 0.15382,-0.14573 0.28336,-0.38861 0.13763,-0.25098 0.31574,-0.66387 l 2.32355,-5.48099 q 0.0971,-0.24288 0.16192,-0.42099 0.0729,-0.18621 0.15383,-0.39671 l 0.51004,-0.0648 q 0.0891,0.38861 0.18621,0.71245 0.10525,0.32384 0.19431,0.59101 l 1.82159,5.27859 q 0.12144,0.35622 0.2186,0.55862 0.0971,0.2024 0.22668,0.31575 0.12954,0.10525 0.32384,0.14573 0.2024,0.0405 0.51815,0.0648 l -0.0243,0.29146 q -0.34003,0 -0.75293,-0.008 -0.4048,-0.008 -0.81769,-0.008 -0.34004,0 -0.68816,0.008 -0.34813,0.008 -0.68816,0.008 l -0.0243,-0.27526 q 0.45338,-0.0324 0.64768,-0.10525 0.1943,-0.081 0.1943,-0.29146 0,-0.089 -0.0324,-0.2024 -0.0324,-0.12144 -0.081,-0.26717 z m -2.50976,-0.46957 h 2.35594 l -1.08486,-3.20602 z"
         style="font-style:normal;font-variant:normal;font-weight:normal;font-stretch:normal;font-size:16.5806px;font-family:'Arabic Typesetting';-inkscape-font-specification:'Arabic Typesetting';text-align:center;letter-spacing:2.64583px;text-anchor:middle;stroke-width:0.264583"
         id="path926" />
      <path
         d="m 431.32353,144.99508 q 0.29145,0 0.70435,0.008 0.42099,0.008 0.83389,0.008 0.41289,0 0.86627,-0.0405 0.45337,-0.0486 0.87437,-0.0486 0.87436,0 1.68396,0.18621 0.8096,0.18621 1.43299,0.6153 0.63149,0.42909 1.00391,1.12534 0.38051,0.68816 0.38051,1.69207 0,1.03628 -0.37242,1.83779 -0.37241,0.8015 -1.0039,1.35203 -0.63149,0.55053 -1.47347,0.84198 -0.83389,0.28336 -1.76493,0.28336 -0.41289,0 -0.88246,-0.0567 -0.46957,-0.0486 -0.88247,-0.0486 -0.16192,0 -0.34812,0.008 -0.17812,0 -0.36432,0 -0.18621,0 -0.35623,0.008 -0.17001,0 -0.29955,0 l -0.0243,-0.27527 q 0.34003,-0.0243 0.55053,-0.0729 0.2105,-0.0486 0.32384,-0.16192 0.11334,-0.11335 0.14573,-0.29955 0.0405,-0.19431 0.0405,-0.50196 v -5.41622 q 0,-0.21859 -0.0324,-0.35622 -0.0324,-0.13763 -0.14572,-0.21859 -0.10525,-0.0891 -0.32384,-0.12144 -0.2186,-0.0405 -0.58292,-0.0567 z m 2.0078,6.33107 q 0,0.23478 0.0162,0.43718 0.0162,0.19431 0.12144,0.34003 0.10524,0.14573 0.34003,0.22669 0.23478,0.081 0.67197,0.081 0.78531,0 1.42489,-0.24288 0.64768,-0.25097 1.10915,-0.72054 0.46147,-0.46957 0.71245,-1.14154 0.25907,-0.67197 0.25907,-1.51395 0,-0.85817 -0.26717,-1.49776 -0.25907,-0.64768 -0.72054,-1.07677 -0.46147,-0.43718 -1.09296,-0.65577 -0.63149,-0.21859 -1.36822,-0.21859 -0.25907,0 -0.47767,0.0324 -0.21859,0.0324 -0.38051,0.0891 -0.16192,0.0567 -0.25907,0.12144 -0.0891,0.0648 -0.0891,0.13763 z"
         style="font-style:normal;font-variant:normal;font-weight:normal;font-stretch:normal;font-size:16.5806px;font-family:'Arabic Typesetting';-inkscape-font-specification:'Arabic Typesetting';text-align:center;letter-spacing:2.64583px;text-anchor:middle;stroke-width:0.264583"
         id="path929" />
      <path
         d="m 444.71274,151.44759 q 0,0.27526 0.0324,0.45337 0.0324,0.17812 0.13763,0.28336 0.11334,0.0972 0.30764,0.13764 0.2024,0.0405 0.53434,0.0405 h 0.5991 q 0.46957,0 0.76103,-0.0729 0.29955,-0.081 0.50195,-0.25907 0.2024,-0.18621 0.35622,-0.48576 0.16192,-0.29955 0.34813,-0.73674 l 0.31575,0.0729 q -0.0648,0.23478 -0.12144,0.50195 -0.0567,0.26717 -0.10525,0.52624 -0.0486,0.25907 -0.081,0.48576 -0.0324,0.22669 -0.0405,0.37242 -1.61111,0 -2.61501,-0.008 -0.99581,-0.008 -1.48966,-0.008 -0.14573,0 -0.34813,0.008 -0.1943,0 -0.4048,0 -0.2105,0 -0.4129,0.008 -0.1943,0 -0.33193,0 l -0.0243,-0.27527 q 0.37242,-0.0243 0.5991,-0.0729 0.22669,-0.0567 0.34813,-0.16192 0.12144,-0.11335 0.16192,-0.29955 0.0405,-0.19431 0.0405,-0.50196 v -5.4486 q 0,-0.19431 -0.0405,-0.32384 -0.0324,-0.12954 -0.14573,-0.2105 -0.10524,-0.089 -0.31574,-0.12953 -0.2024,-0.0405 -0.55053,-0.0567 l 0.0243,-0.29145 q 0.15382,0 0.34813,0.008 0.2024,0 0.4048,0 0.21049,0 0.4048,0.008 0.2024,0 0.37241,0 0.31575,0 1.32775,-0.008 1.012,-0.008 2.57452,-0.008 -0.0486,0.41289 -0.0729,0.86627 -0.0243,0.45338 -0.0324,0.96342 l -0.32384,0.008 q -0.0729,-0.42099 -0.16192,-0.69626 -0.0891,-0.27526 -0.25098,-0.43718 -0.16192,-0.17002 -0.42099,-0.23478 -0.25907,-0.0729 -0.67197,-0.0729 h -1.15773 q -0.24288,0 -0.31574,0.0486 -0.0648,0.0486 -0.0648,0.25097 v 2.80122 l 2.73645,-0.081 0.0567,0.0567 -0.0162,0.67197 q -0.73674,-0.0648 -1.45728,-0.0891 -0.71245,-0.0243 -1.31965,-0.0405 z"
         style="font-style:normal;font-variant:normal;font-weight:normal;font-stretch:normal;font-size:16.5806px;font-family:'Arabic Typesetting';-inkscape-font-specification:'Arabic Typesetting';text-align:center;letter-spacing:2.64583px;text-anchor:middle;stroke-width:0.264583"
         id="path931" />
    </g>
  </g>
  <g
     id="layer4"
     transform="translate(-28.853791,-162.88454)"
     style="display:inline">
    <circle
       style="opacity:1;fill:#000000;fill-opacity:1;stroke:#56c9b7;stroke-width:0;stroke-miterlimit:4;stroke-dasharray:none;stroke-dashoffset:0;stroke-opacity:1"
       id="path930"
       cx="50.53558"
       cy="212.3334"
       r="1.8434852" />
  </g>
  <g
     id="g934"
     transform="translate(-28.853791,-162.88454)"
     style="display:inline">
    <circle
       r="1.8434852"
       cy="212.3334"
       cx="149.48924"
       id="circle932"
       style="opacity:1;fill:#000000;fill-opacity:1;stroke:#56c9b7;stroke-width:0;stroke-miterlimit:4;stroke-dasharray:none;stroke-dashoffset:0;stroke-opacity:1" />
  </g>
  <g
     id="layer5"
     style="display:inline"
     transform="translate(-28.853791,-162.88454)">
    <path
       style="fill:none;stroke:#000000;stroke-width:0.965;stroke-linecap:round;stroke-linejoin:round;stroke-miterlimit:4;stroke-dasharray:none;stroke-opacity:1"
       d="m 124.91205,175.41618 c 3.16553,2.82948 6.30494,3.24197 9.4435,0 -3.19589,-2.98447 -6.33473,-2.70239 -9.4435,0 z"
       id="path844" />
  </g>
  <g
     id="g900"
     style="display:inline"
     transform="translate(-28.853791,-162.88454)">
    <path
       id="path898"
       d="m 122.35229,172.81052 c 2.82948,-3.16553 3.24197,-6.30494 0,-9.4435 -2.98447,3.19589 -2.70239,6.33473 0,9.4435 z"
       style="fill:none;stroke:#000000;stroke-width:0.965;stroke-linecap:round;stroke-linejoin:round;stroke-miterlimit:4;stroke-dasharray:none;stroke-opacity:1" />
  </g>
  <g
     style="display:inline"
     id="g921"
     transform="translate(-28.853791,-162.88454)">
    <path
       style="fill:none;stroke:#000000;stroke-width:0.965;stroke-linecap:round;stroke-linejoin:round;stroke-miterlimit:4;stroke-dasharray:none;stroke-opacity:1"
       d="m 124.12633,173.5925 c 4.23912,-0.23762 6.75069,-2.16585 6.67757,-6.67756 -4.37018,0.14949 -6.39021,2.56845 -6.67757,6.67756 z"
       id="path919" />
  </g>
  <g
     id="g925"
     style="display:inline"
     transform="translate(-28.853791,-162.88454)">
    <path
       id="path923"
       d="m 113.84333,183.8755 c 4.23912,-0.23762 6.75069,-2.16585 6.67757,-6.67756 -4.37018,0.14949 -6.39021,2.56845 -6.67757,6.67756 z"
       style="fill:none;stroke:#000000;stroke-width:0.965;stroke-linecap:round;stroke-linejoin:round;stroke-miterlimit:4;stroke-dasharray:none;stroke-opacity:1" />
  </g>
  <g
     style="display:inline"
     id="g909"
     transform="translate(-28.853791,-162.88454)">
    <path
       style="fill:none;stroke:#000000;stroke-width:0.965;stroke-linecap:round;stroke-linejoin:round;stroke-miterlimit:4;stroke-dasharray:none;stroke-opacity:1"
       d="m 122.35229,187.62722 c 2.82948,-3.16553 3.24197,-6.30494 0,-9.4435 -2.98447,3.19589 -2.70239,6.33473 0,9.4435 z"
       id="path906" />
  </g>
  <g
     id="g913"
     style="display:inline"
     transform="translate(-28.853791,-162.88454)">
    <path
       id="path911"
       d="m 120.60589,173.6495 c -0.23762,-4.23911 -2.16585,-6.75068 -6.67756,-6.67756 0.14949,4.37017 2.56845,6.39021 6.67756,6.67756 z"
       style="fill:none;stroke:#000000;stroke-width:0.965;stroke-linecap:round;stroke-linejoin:round;stroke-miterlimit:4;stroke-dasharray:none;stroke-opacity:1" />
  </g>
  <g
     style="display:inline"
     id="g917"
     transform="translate(-28.853791,-162.88454)">
    <path
       style="fill:none;stroke:#000000;stroke-width:0.965;stroke-linecap:round;stroke-linejoin:round;stroke-miterlimit:4;stroke-dasharray:none;stroke-opacity:1"
       d="m 130.88889,183.9325 c -0.23762,-4.23911 -2.16585,-6.75068 -6.67756,-6.67756 0.14949,4.37017 2.56845,6.39021 6.67756,6.67756 z"
       id="path915" />
  </g>
  <g
     id="g904"
     style="display:inline"
     transform="translate(-28.853791,-162.88454)">
    <path
       style="fill:none;stroke:#000000;stroke-width:0.965;stroke-linecap:round;stroke-linejoin:round;stroke-miterlimit:4;stroke-dasharray:none;stroke-opacity:1"
       d="m 110.32431,175.41618 c 3.16553,2.82948 6.30494,3.24197 9.4435,0 -3.19589,-2.98447 -6.33473,-2.70239 -9.4435,0 z"
       id="path902" />
  </g>
  <g
     id="layer6"
     style="display:inline"
     transform="translate(-28.853791,-162.88454)">
    <ellipse
       style="opacity:1;fill:none;fill-opacity:1;stroke:#000000;stroke-width:0.965;stroke-linecap:round;stroke-linejoin:round;stroke-miterlimit:4;stroke-dasharray:none;stroke-dashoffset:0;stroke-opacity:1"
       id="path928"
       cx="122.31463"
       cy="175.34995"
       rx="2.3525002"
       ry="2.3524997" />
  </g>
  <g
     id="layer8"
     transform="translate(-28.853791,-162.88454)">
    <path
       style="fill:#000000;fill-opacity:1;stroke:none;stroke-width:0.265;stroke-linecap:butt;stroke-linejoin:miter;stroke-miterlimit:4;stroke-dasharray:none;stroke-opacity:1"
       d="m 120.28442,171.01118 0.32147,2.63832 1.74641,-0.83898 1.77403,0.78198 0.7857,1.82368 -0.70069,1.83876 -1.85904,0.92878 -1.8314,-0.98578 -0.75311,-1.78176 0.38566,-1.13046 -0.19648,-0.75314 -2.22668,-0.0655 1.44079,1.50629 0.59671,0.4428 -1.97202,1.98036 2.72513,-0.1986 -0.17097,3.24393 2.00237,-2.25815 2.1563,2.42188 -0.29726,-3.35066 2.65493,-0.0221 -1.95424,-1.81664 2.11797,-1.91634 -2.90367,0.0927 0.15306,-2.87603 -1.92709,2.09405 z"
       id="path5432" />
  </g>
  <g
     id="layer9"
     style="display:inline"
     transform="translate(-28.853791,-162.88454)">
    <path
       style="fill:none;stroke:#000000;stroke-width:1.065;stroke-linecap:butt;stroke-linejoin:round;stroke-miterlimit:4;stroke-dasharray:none;stroke-opacity:1"
       d="m 116.55144,189.02118 c 0.70928,-2.52552 1.86808,-4.99485 3.27456,-7.43322 l -0.0328,0.0655 v -0.0327"
       id="path5435" />
  </g>
</svg>
