<?xml version="1.0" encoding="UTF-8" standalone="no"?>
<svg
   xmlns:dc="http://purl.org/dc/elements/1.1/"
   xmlns:cc="http://creativecommons.org/ns#"
   xmlns:rdf="http://www.w3.org/1999/02/22-rdf-syntax-ns#"
   xmlns:svg="http://www.w3.org/2000/svg"
   xmlns="http://www.w3.org/2000/svg"
   width="18"
   height="18"
   viewBox="0 0 4.7625002 4.7625002"
   version="1.1"
   id="svg8">
  <defs
     id="defs2" />
  <metadata
     id="metadata5">
    <rdf:RDF>
      <cc:Work
         rdf:about="">
        <dc:format>image/svg+xml</dc:format>
        <dc:type
           rdf:resource="http://purl.org/dc/dcmitype/StillImage" />
        <dc:title></dc:title>
      </cc:Work>
    </rdf:RDF>
  </metadata>
  <g
     id="layer2"
     transform="translate(-21.050048,-62.284792)"
     style="display:inline">
    <path
       style="display:inline;fill:#000000;fill-opacity:1;stroke-width:0.0223334;stroke-miterlimit:4;stroke-dasharray:none"
       d="m 22.776493,66.643354 c -0.237123,-0.0068 -0.340429,-0.01663 -0.463621,-0.04403 -0.219106,-0.04873 -0.388741,-0.13869 -0.532323,-0.282282 -0.176085,-0.176097 -0.279412,-0.409354 -0.31072,-0.701445 -0.03054,-0.284904 -0.03054,-1.613934 0,-1.898839 0.03131,-0.29209 0.134635,-0.525347 0.31072,-0.701445 0.176085,-0.176097 0.409326,-0.27943 0.701395,-0.310741 0.284885,-0.03054 1.613823,-0.03054 1.898707,0 0.29207,0.03131 0.525311,0.134644 0.701396,0.310741 0.176085,0.176098 0.279411,0.409355 0.31072,0.701445 0.03054,0.284905 0.03054,1.613935 0,1.898839 -0.03131,0.292091 -0.134635,0.525348 -0.31072,0.701445 -0.176085,0.176098 -0.409326,0.279431 -0.701396,0.310741 -0.197425,0.02117 -1.103572,0.02996 -1.604158,0.01557 z M 24.08127,66.28916 c 0.228027,-0.0084 0.301143,-0.01557 0.404479,-0.03973 0.14168,-0.03313 0.249776,-0.09139 0.343536,-0.18516 0.11765,-0.117657 0.18107,-0.261125 0.208784,-0.472302 0.0319,-0.243102 0.0319,-1.608464 0,-1.851566 -0.02772,-0.211178 -0.09113,-0.354644 -0.208784,-0.472302 -0.117649,-0.117657 -0.261106,-0.181082 -0.472269,-0.208799 -0.243084,-0.0319 -1.608352,-0.0319 -1.851436,0 -0.211163,0.02772 -0.35462,0.09114 -0.472269,0.208799 -0.11765,0.117658 -0.18107,0.261124 -0.208785,0.472302 -0.0319,0.243102 -0.0319,1.608464 0,1.851566 0.02772,0.211177 0.09113,0.354645 0.208785,0.472302 0.09372,0.09373 0.201689,0.151936 0.343536,0.185206 0.09984,0.02342 0.183408,0.03225 0.369026,0.03903 0.252054,0.0092 1.091881,0.0096 1.335397,6.67e-4 z m -0.817397,-0.618849 c -0.203052,-0.03161 -0.396626,-0.132217 -0.550527,-0.286129 -0.196141,-0.196155 -0.298276,-0.44201 -0.298276,-0.718003 0,-0.275992 0.102135,-0.521848 0.298276,-0.718002 0.19614,-0.196155 0.441978,-0.298296 0.717952,-0.298296 0.275973,0 0.521812,0.102141 0.717952,0.298296 0.196141,0.196154 0.298275,0.44201 0.298275,0.718002 0,0.275993 -0.102134,0.521848 -0.298275,0.718003 -0.198762,0.198776 -0.445168,0.299799 -0.72583,0.297579 -0.04983,-3.97e-4 -0.121627,-0.0055 -0.159547,-0.01145 z m 0.356508,-0.369809 c 0.114697,-0.03699 0.182463,-0.07692 0.266797,-0.157192 0.08675,-0.08257 0.138485,-0.165818 0.179008,-0.288035 0.02052,-0.06189 0.0222,-0.07624 0.0222,-0.189096 0,-0.112853 -0.0017,-0.127208 -0.0222,-0.189096 -0.04052,-0.122216 -0.09226,-0.205464 -0.179008,-0.288035 -0.08377,-0.07974 -0.150616,-0.119274 -0.266797,-0.157801 -0.06188,-0.02052 -0.07624,-0.0222 -0.189083,-0.0222 -0.112845,0 -0.1272,0.0017 -0.189083,0.0222 -0.116181,0.03853 -0.183028,0.07806 -0.266798,0.157801 -0.08675,0.08257 -0.138484,0.165819 -0.179007,0.288035 -0.02052,0.06189 -0.0222,0.07624 -0.0222,0.189096 0,0.112853 0.0017,0.127209 0.0222,0.189096 0.03852,0.11619 0.07806,0.18304 0.15779,0.266816 0.07903,0.08304 0.166036,0.138368 0.272799,0.173481 0.08411,0.02766 0.116159,0.03182 0.223995,0.02911 0.0855,-0.0022 0.113486,-0.0062 0.169387,-0.02418 z m 0.825052,-1.462525 c -0.07126,-0.01085 -0.141073,-0.06716 -0.173154,-0.13969 -0.02128,-0.04811 -0.02116,-0.135821 2.52e-4,-0.184231 0.02183,-0.04937 0.06626,-0.09603 0.114117,-0.119885 0.03337,-0.01663 0.05158,-0.02015 0.104303,-0.02015 0.07637,0 0.127587,0.02132 0.1736,0.07225 0.04466,0.04943 0.05844,0.08718 0.05864,0.160601 1.32e-4,0.05249 -0.0033,0.07044 -0.01997,0.103888 -0.04767,0.09566 -0.146054,0.144213 -0.257784,0.127213 z"
       id="path1019" />
  </g>
</svg>
