<?xml version="1.0" encoding="UTF-8" standalone="no"?>
<svg
   xmlns:dc="http://purl.org/dc/elements/1.1/"
   xmlns:cc="http://creativecommons.org/ns#"
   xmlns:rdf="http://www.w3.org/1999/02/22-rdf-syntax-ns#"
   xmlns:svg="http://www.w3.org/2000/svg"
   xmlns="http://www.w3.org/2000/svg"
   width="50.000053mm"
   height="47.78524mm"
   viewBox="0 0 50.000052 47.78524"
   version="1.1"
   id="svg8">
  <defs
     id="defs2" />
  <metadata
     id="metadata5">
    <rdf:RDF>
      <cc:Work
         rdf:about="">
        <dc:format>image/svg+xml</dc:format>
        <dc:type
           rdf:resource="http://purl.org/dc/dcmitype/StillImage" />
        <dc:title></dc:title>
      </cc:Work>
    </rdf:RDF>
  </metadata>
  <g
     id="layer5"
     style="display:inline"
     transform="translate(-109.8418,-162.88455)">
    <path
       style="fill:#ffffff;stroke:#000000;stroke-width:1.87846;stroke-linecap:round;stroke-linejoin:round;stroke-miterlimit:4;stroke-dasharray:none;stroke-opacity:1;fill-opacity:1"
       d="m 139.99241,186.62401 c 6.33885,5.35414 12.62541,6.13469 18.91026,0 -6.39966,-5.64743 -12.68507,-5.11366 -18.91026,0 z"
       id="path844" />
  </g>
  <g
     id="g900"
     style="display:inline"
     transform="translate(-109.8418,-162.88455)">
    <path
       id="path898"
       d="m 134.86658,181.6934 c 5.66593,-5.99004 6.49193,-11.93066 0,-17.86966 -5.97629,6.04748 -5.41144,11.98702 0,17.86966 z"
       style="mix-blend-mode:normal;fill:#91cec6;fill-opacity:1;stroke:#000000;stroke-width:1.87846;stroke-linecap:round;stroke-linejoin:round;stroke-miterlimit:4;stroke-dasharray:none;stroke-opacity:1" />
  </g>
  <g
     style="display:inline"
     id="g921"
     transform="translate(-109.8418,-162.88455)">
    <path
       style="fill:#ffffff;stroke:#000000;stroke-width:1.87846;stroke-linecap:round;stroke-linejoin:round;stroke-miterlimit:4;stroke-dasharray:none;stroke-opacity:1;fill-opacity:1"
       d="m 138.41903,183.17312 c 8.48868,-0.44964 13.51801,-4.09838 13.37159,-12.63576 -8.75113,0.28287 -12.79616,4.86021 -13.37159,12.63576 z"
       id="path919" />
  </g>
  <g
     id="g925"
     style="display:inline"
     transform="translate(-109.8418,-162.88455)">
    <path
       id="path923"
       d="m 117.8277,202.63134 c 8.48868,-0.44964 13.51801,-4.09837 13.37158,-12.63575 -8.75112,0.28287 -12.79615,4.8602 -13.37158,12.63575 z"
       style="mix-blend-mode:normal;fill:#ffffff;stroke:#000000;stroke-width:1.87846;stroke-linecap:round;stroke-linejoin:round;stroke-miterlimit:4;stroke-dasharray:none;stroke-opacity:1;fill-opacity:1" />
  </g>
  <g
     style="display:inline"
     id="g909"
     transform="translate(-109.8418,-162.88455)">
    <path
       style="fill:#ffffff;stroke:#000000;stroke-width:1.87846;stroke-linecap:round;stroke-linejoin:round;stroke-miterlimit:4;stroke-dasharray:none;stroke-opacity:1;fill-opacity:1"
       d="m 134.86658,209.7306 c 5.66593,-5.99003 6.49193,-11.93064 0,-17.86965 -5.97629,6.04748 -5.41144,11.98703 0,17.86965 z"
       id="path906" />
  </g>
  <g
     id="g913"
     style="display:inline"
     transform="translate(-109.8418,-162.88455)">
    <path
       id="path911"
       d="m 131.36948,183.28097 c -0.47583,-8.02154 -4.33703,-12.77412 -13.37157,-12.63575 0.29935,8.26954 5.14322,12.09202 13.37157,12.63575 z"
       style="fill:#ffffff;stroke:#000000;stroke-width:1.87846;stroke-linecap:round;stroke-linejoin:round;stroke-miterlimit:4;stroke-dasharray:none;stroke-opacity:1;fill-opacity:1" />
  </g>
  <g
     style="display:inline"
     id="g917"
     transform="translate(-109.8418,-162.88455)">
    <path
       style="fill:#ffffff;stroke:#000000;stroke-width:1.87846;stroke-linecap:round;stroke-linejoin:round;stroke-miterlimit:4;stroke-dasharray:none;stroke-opacity:1;fill-opacity:1"
       d="m 151.96081,202.7392 c -0.47582,-8.02154 -4.33704,-12.77412 -13.37157,-12.63576 0.29934,8.26954 5.14323,12.09201 13.37157,12.63576 z"
       id="path915" />
  </g>
  <g
     id="g904"
     style="display:inline"
     transform="translate(-109.8418,-162.88455)">
    <path
       style="fill:#ffffff;stroke:#000000;stroke-width:1.87846;stroke-linecap:round;stroke-linejoin:round;stroke-miterlimit:4;stroke-dasharray:none;stroke-opacity:1;fill-opacity:1"
       d="m 110.78098,186.62401 c 6.33887,5.35414 12.62542,6.13469 18.91028,0 -6.39966,-5.64743 -12.68507,-5.11366 -18.91028,0 z"
       id="path902" />
  </g>
  <g
     id="layer6"
     style="display:inline"
     transform="translate(-109.8418,-162.88455)">
    <ellipse
       style="opacity:1;fill:#ffffff;fill-opacity:1;stroke:#000000;stroke-width:1.87846;stroke-linecap:round;stroke-linejoin:round;stroke-miterlimit:4;stroke-dasharray:none;stroke-dashoffset:0;stroke-opacity:1"
       id="path928"
       cx="134.79117"
       cy="186.49867"
       rx="4.7107959"
       ry="4.4515676" />
  </g>
  <g
     id="layer8"
     transform="translate(-109.8418,-162.88455)"
     style="display:inline">
    <path
       style="fill:#000000;fill-opacity:1;stroke:none;stroke-width:0.515845;stroke-linecap:butt;stroke-linejoin:miter;stroke-miterlimit:4;stroke-dasharray:none;stroke-opacity:1"
       d="m 130.72575,178.28855 0.64373,4.99242 3.49712,-1.58757 3.55243,1.47972 1.57334,3.45089 -1.40311,3.47943 -3.72266,1.75751 -3.66732,-1.86536 -1.50806,-3.37158 0.77226,-2.13913 -0.39344,-1.42514 -4.45885,-0.12388 2.88513,2.85031 1.1949,0.8379 -3.9489,3.74737 5.45696,-0.3758 -0.34235,6.13841 4.00967,-4.27304 4.31791,4.58286 -0.59525,-6.34037 5.3164,-0.0419 -3.91329,-3.43759 4.24115,-3.62623 -5.81449,0.17549 0.3065,-5.44223 -3.85893,3.96251 z"
       id="path5432" />
  </g>
  <g
     id="layer9"
     style="display:none"
     transform="translate(-109.8418,-162.88455)">
    <path
       style="fill:none;stroke:#000000;stroke-width:2.07312;stroke-linecap:butt;stroke-linejoin:round;stroke-miterlimit:4;stroke-dasharray:none;stroke-opacity:1"
       d="m 123.25059,212.36837 c 1.42031,-4.77898 3.74076,-9.45162 6.55719,-14.06568 l -0.0657,0.12388 v -0.0619"
       id="path5435" />
  </g>
</svg>
